# xmcd CD database file
#
# Track frame offsets:
#	150
#	44032
#	82383
#	111026
#	121012
#	151940
#	184771
#	213007
#	227472
#
# Disc length: 3103 seconds
#
# Revision: 0
# Processed by: cddbd v1.5.1PL2 Copyright (c) Steve Scherf et al.
# Submitted via: CDex 1.51
#
DISCID=6e0c1d09
DTITLE=Maciej Sika³a - The Sheep Is Found
DYEAR=2001
DGENRE=Jazz
TTITLE0=The Sheep is Found - Odnaleziona owieczka
TTITLE1=Waltz for Paul F. - Walc dla Paw³a F.
TTITLE2=Platino
TTITLE3=Souvenir for M - Prezent dla M
TTITLE4=Three for Tom
TTITLE5=During Soundtrack
TTITLE6=Blues for M - Blues dla M
TTITLE7=8 Bars of Autumn - 8 taktów jesieni
TTITLE8=The Sheep is Found (Theme) - Odnaleziona owieczka (Temat)
EXTD=YEAR: 2001
EXTT0=
EXTT1=
EXTT2=
EXTT3=
EXTT4=
EXTT5=
EXTT6=
EXTT7=
EXTT8=
PLAYORDER=
